Coordinates
version=1
nRows=9
nColumns=63
inDegrees=yes

Units are S.I. units (second, meters, Newtons, ...)
If the header above contains a line with 'inDegrees', this indicates whether rotational values are in degrees (yes) or radians (no).

endheader
time	pelvis_tilt	pelvis_list	pelvis_rotation	pelvis_tx	pelvis_ty	pelvis_tz	hip_flexion_r	hip_adduction_r	hip_rotation_r	knee_angle_r	knee_angle_r_beta	ankle_angle_r	subtalar_angle_r	mtp_angle_r	hip_flexion_l	hip_adduction_l	hip_rotation_l	knee_angle_l	knee_angle_l_beta	ankle_angle_l	subtalar_angle_l	mtp_angle_l	L5_S1_Flex_Ext	L5_S1_Lat_Bending	L5_S1_axial_rotation	L4_L5_Flex_Ext	L4_L5_Lat_Bending	L4_L5_axial_rotation	L3_L4_Flex_Ext	L3_L4_Lat_Bending	L3_L4_axial_rotation	L2_L3_Flex_Ext	L2_L3_Lat_Bending	L2_L3_axial_rotation	L1_L2_Flex_Ext	L1_L2_Lat_Bending	L1_L2_axial_rotation	L1_T12_Flex_Ext	L1_T12_Lat_Bending	L1_T12_axial_rotation	Abs_r3	Abs_r2	Abs_r1	Abs_t1	Abs_t2	neck_flexion	neck_bending	neck_rotation	arm_flex_r	arm_add_r	arm_rot_r	elbow_flex_r	pro_sup_r	wrist_flex_r	wrist_dev_r	arm_flex_l	arm_add_l	arm_rot_l	elbow_flex_l	pro_sup_l	wrist_flex_l	wrist_dev_l
      1.38983051	      1.48411551	     -6.71788054	     90.36879281	      0.19003505	      0.64537954	      0.97739673	     -3.25463525	      0.96504878	     -7.45599119	      7.73554497	      0.13501073	     32.24649848	      9.33419870	      0.00000000	     -3.25943116	     -1.92948320	    -11.34852193	      7.87478989	      0.13744101	     33.47433695	     15.27868453	      0.00000000	      0.22731813	      0.13088657	      0.13107331	      0.42215250	      0.17407914	      0.13926539	      0.37346096	      0.31823761	      0.13926539	      0.25980189	      0.31823761	      0.11468914	      0.21108762	      0.26690390	      0.10649706	      0.12988958	      0.20274330	      0.09830498	      1.62371069	      1.48061509	      0.72899042	      0.00000000	      0.00000000	     28.12200736	     -8.93594029	     -6.82287830	     -8.95443059	    -16.97516976	     16.66266843	    113.57023473	     59.54133085	     11.11440899	     14.28885922	      2.40159936	    -12.41782288	     21.00425858	    104.59353630	     73.69140328	     16.98638954	      6.32812541
      1.40677966	      1.50000311	     -6.74875221	     90.28264937	      0.19035787	      0.64535810	      0.97599325	     -3.37562807	      1.03362405	     -7.14908006	      7.50698149	      0.13102154	     32.24842066	      9.20185924	      0.00000000	     -3.39719485	     -1.89195301	    -10.86099153	      7.58470667	      0.13237810	     33.54712303	     14.91572458	      0.00000000	      0.24946695	      0.13169968	      0.03545563	      0.46328507	      0.17516057	      0.03767160	      0.40984925	      0.32021460	      0.03767160	      0.28511578	      0.32021460	      0.03102367	      0.23165501	      0.26856198	      0.02880770	      0.14254541	      0.20400280	      0.02659172	      1.78191747	      1.48981310	      0.19719356	      0.00000000	      0.00000000	     28.14701219	     -8.38350632	     -6.01830712	     -8.75054387	    -16.91831884	     17.11307288	    113.43288876	     59.56291157	     11.56738190	     15.69162625	      1.11740200	    -11.94694360	     20.01070869	    105.13860548	     74.45454324	     15.61955584	      6.09872721
      1.42372881	      1.52380376	     -6.72253585	     90.19187743	      0.19069659	      0.64537765	      0.97489486	     -3.45430209	      0.99656531	     -8.42513156	      7.48577074	      0.13065135	     32.66449723	     11.19257229	      0.00000000	     -3.51313434	     -1.94388880	    -11.46909876	      7.43396772	      0.12974721	     34.00706561	     16.06086683	      0.00000000	      0.26312009	      0.13553306	     -0.06746900	      0.48864033	      0.18025897	     -0.07168582	      0.43228000	      0.32953509	     -0.07168582	      0.30071996	      0.32953509	     -0.05903538	      0.24433332	      0.27637902	     -0.05481857	      0.15034682	      0.20994071	     -0.05060175	      1.87944052	      1.53317710	     -0.37524236	      0.00000000	      0.00000000	     28.16530565	     -7.68280259	     -4.86701338	     -8.41014095	    -16.99070010	     17.97254591	    113.10190743	     58.50533794	     12.37702394	     16.75959046	     -0.12708880	    -11.54712086	     19.20808866	    105.53356760	     75.45034019	     13.76378525	      4.70063908
      1.44067797	      1.51879344	     -6.66877046	     90.10999843	      0.19103337	      0.64541990	      0.97374512	     -3.65752067	      1.05519925	     -7.96970859	      7.22152049	      0.12603931	     32.74595565	     10.96202525	      0.00000000	     -3.73033932	     -1.87759112	    -10.89796498	      7.07372214	      0.12345974	     34.24076005	     15.85733373	      0.00000000	      0.27818716	      0.13648877	     -0.16254774	      0.51662138	      0.18153006	     -0.17270698	      0.45703369	      0.33185879	     -0.17270698	      0.31794011	      0.33185879	     -0.14222928	      0.25832460	      0.27832789	     -0.13207004	      0.15895614	      0.21142110	     -0.12191081	      1.98706307	      1.54398822	     -0.90404179	      0.00000000	      0.00000000	     28.17470319	     -7.14096790	     -3.86980608	     -8.16895530	    -17.02014711	     18.84275907	    112.84148151	     58.29491618	     13.54085668	     18.29204821	     -1.38359568	    -11.08851026	     18.31476763	    106.07828032	     76.00109016	     11.97325438	      4.61990229
      1.45762712	      1.50083661	     -6.55694032	     90.05669068	      0.19138253	      0.64552960	      0.97298210	     -3.85689303	      1.05733668	     -8.09229752	      7.10965806	      0.12408694	     32.87100177	     11.41802387	      0.00000000	     -3.91306139	     -1.86068951	    -11.09990462	      6.89202958	      0.12028861	     34.66024537	     16.56084178	      0.00000000	      0.28219223	      0.13848803	     -0.23444391	      0.52405919	      0.18418908	     -0.24909666	      0.46361361	      0.33671979	     -0.24909666	      0.32251750	      0.33671979	     -0.20513842	      0.26204370	      0.28240479	     -0.19048568	      0.16124464	      0.21451796	     -0.17583293	      2.01567087	      1.56660428	     -1.30390670	      0.00000000	      0.00000000	     28.17844389	     -6.31616662	     -2.44459230	     -7.93427068	    -17.06076886	     19.75995225	    112.33261370	     57.14947064	     15.94676859	     19.67135825	     -2.23333209	    -10.83741308	     17.93498317	    106.35473171	     76.66316185	      9.82085322	      3.82251535
      1.47457627	      1.44995197	     -6.45814362	     90.08922744	      0.19164605	      0.64554368	      0.97232168	     -4.01933186	      1.03798134	     -8.08557474	      7.10059970	      0.12392884	     32.93378261	     11.44765310	      0.00000000	     -4.03887869	     -1.80852485	    -10.83678224	      6.80319080	      0.11873808	     35.00911073	     16.73436362	      0.00000000	      0.28865219	      0.13226189	     -0.20562337	      0.53605599	      0.17590831	     -0.21847483	      0.47422669	      0.32158156	     -0.21847483	      0.32990059	      0.32158156	     -0.17992045	      0.26804243	      0.26970844	     -0.16706899	      0.16493586	      0.20487367	     -0.15421753	      2.06181375	      1.49617294	     -1.14361550	      0.00000000	      0.00000000	     28.16947111	     -6.33803318	     -2.38370046	     -8.32114740	    -17.22330665	     20.47698373	    112.35312890	     57.25815119	     16.29243275	     19.93419207	     -2.39282809	    -10.67056496	     18.02560038	    106.17966015	     76.68743030	      9.71987368	      3.86705908
      1.49152542	      1.38210963	     -6.31227708	     90.31031781	      0.19174803	      0.64561281	      0.97158177	     -4.32426176	      1.01818729	     -8.31614102	      6.99236837	      0.12203985	     32.89699880	     11.55325281	      0.00000000	     -4.31141151	     -1.72953615	    -10.27035503	      6.49907315	      0.11343022	     35.07430389	     16.66536407	      0.00000000	      0.28825630	      0.12620581	     -0.26646911	      0.53532078	      0.16785372	     -0.28312343	      0.47357628	      0.30685680	     -0.28312343	      0.32944813	      0.30685680	     -0.23316047	      0.26767480	      0.25735888	     -0.21650615	      0.16470965	      0.19549280	     -0.19985183	      2.05898596	      1.42766533	     -1.48202123	      0.00000000	      0.00000000	     28.18894563	     -5.97879043	     -1.47353334	     -8.28918789	    -16.99086196	     20.61519505	    111.57177719	     56.90240414	     21.90634082	     22.14773600	     -2.67606473	    -10.70209162	     18.14332957	    106.36263266	     76.50349371	      7.79465828	      4.35196036
      1.50847458	      1.31267775	     -6.21092528	     90.42268013	      0.19197548	      0.64556305	      0.97085282	     -4.54103513	      0.98296983	     -8.36833389	      6.99809471	      0.12213979	     32.77918481	     11.37458617	      0.00000000	     -4.50204974	     -1.66789539	    -10.00116148	      6.36850110	      0.11115131	     35.17829572	     16.63366621	      0.00000000	      0.29575625	      0.11691430	     -0.20576220	      0.54924892	      0.15549602	     -0.21862234	      0.48589794	      0.28426543	     -0.21862234	      0.33801981	      0.28426543	     -0.18004193	      0.27463925	      0.23841164	     -0.16718179	      0.16899512	      0.18110025	     -0.15432165	      2.11255729	      1.32255795	     -1.14438763	      0.00000000	      0.00000000	     28.20464913	     -6.43999974	     -1.78380938	     -8.80116535	    -16.89231718	     20.49523223	    111.28743517	     56.71101004	     25.04073157	     23.51503617	     -2.37351486	    -10.89877526	     18.86370522	    106.17291714	     75.69062920	      7.11905972	      5.02595675
      1.52542373	      1.27026379	     -6.14538574	     90.48386565	      0.19245986	      0.64544735	      0.97001146	     -4.69830007	      0.97122867	     -8.42705148	      7.06269948	      0.12326736	     32.71370425	     11.32111328	      0.00000000	     -4.62096755	     -1.66950043	     -9.98125667	      6.37892874	      0.11133331	     35.28156231	     16.63556893	      0.00000000	      0.31382241	      0.10846866	     -0.19077010	      0.58279960	      0.14426332	     -0.20269323	      0.51557884	      0.26373071	     -0.20269323	      0.35866763	      0.26373071	     -0.16692383	      0.29141549	      0.22118930	     -0.15500070	      0.17931813	      0.16801796	     -0.14307757	      2.24160211	      1.22701922	     -1.06100604	      0.00000000	      0.00000000	     28.23233350	     -6.51372822	     -1.75029780	     -9.27473274	    -17.05054837	     20.97020981	    111.25734622	     56.77783352	     25.22494303	     23.66646119	     -2.31754444	    -10.95339695	     19.00132414	    105.90132601	     75.68773881	      7.09984586	      5.13320783
